<?xml version="1.0" encoding="UTF-8" standalone="no"?>
<svg width="15px" height="16px" viewBox="0 0 15 16" version="1.1" xmlns="http://www.w3.org/2000/svg" xmlns:xlink="http://www.w3.org/1999/xlink">
    <!-- Generator: Sketch 50.2 (55047) - http://www.bohemiancoding.com/sketch -->
    <title>frameworkless__mark-pw</title>
    <desc>Created with Sketch.</desc>
    <defs></defs>
    <g id="Page-1" stroke="none" stroke-width="1" fill="none" fill-rule="evenodd">
        <g id="frameworkless__mark-pw" fill="#63CB9D" fill-rule="nonzero">
            <path d="M14.8428001,11.1600001 L14.5638001,10.6764001 C12.6666001,11.7738001 10.3509001,11.7273001 8.50020007,10.5741001 C8.50020007,10.3137001 8.55600007,9.80220008 8.60250007,9.65340007 C9.47670007,10.2951001 10.5462001,10.6485001 11.6343001,10.6485001 C12.0807001,10.6485001 12.5271001,10.5927001 12.9642001,10.4718001 L12.8154001,9.93240008 C11.4111001,10.3137001 9.88590008,9.98820008 8.76990007,9.07680007 C8.86290007,8.79780007 8.96520007,8.52810007 9.07680007,8.25840006 C9.78360008,8.92800007 10.6950001,9.28140007 11.6250001,9.28140007 C12.2574001,9.28140007 12.8991001,9.11400007 13.4850001,8.77920007 L13.2060001,8.29560006 C12.4806001,8.71410007 11.6436001,8.77920007 10.8717001,8.59320007 C12.7410001,7.41210006 13.8942001,5.30100004 13.8942001,3.06900002 L13.3362001,3.06900002 C13.3362001,5.30100004 12.1272001,7.30980006 10.1742001,8.33280006 C9.90450008,8.19330006 9.65340007,8.03520006 9.43020007,7.81200006 C10.8717001,7.19820006 11.9598001,5.96130005 12.3597001,4.43610003 L11.8203001,4.29660003 C11.4855001,5.57070004 10.6299001,6.62160005 9.46740007,7.19820006 C9.58830007,6.84480005 9.68130007,6.43560005 9.72780007,6.03570005 C10.6206001,5.33820004 11.1507001,4.27800003 11.1507001,3.06900002 L10.5927001,3.06900002 C10.5927001,3.90600003 10.2858001,4.67790004 9.74640007,5.25450004 C9.73710007,5.04060004 9.70920007,4.83600004 9.66270007,4.60350004 C9.28140007,2.61330002 8.12820006,0.948600007 6.51930005,0.0186000001 L6.24030005,0.502200004 C7.71900006,1.35780001 8.76060007,2.89230002 9.11400007,4.71510004 C9.36510007,5.99850005 8.98380007,6.93780005 8.59320007,7.92360006 C8.33280006,8.57460007 8.06310006,9.25350007 7.96080006,10.0440001 C7.78410006,11.4855001 8.50020007,12.8898001 9.78360008,13.6338001 L10.0626001,13.1502001 C9.33720007,12.7317001 8.81640007,12.0342001 8.60250007,11.2623001 C9.54180007,11.7645001 10.5834001,12.0156001 11.6157001,12.0156001 C12.7224001,12.0249001 13.8384001,11.7366001 14.8428001,11.1600001 Z" id="Shape"></path>
            <path d="M5.79390004,11.2809001 C5.54280004,9.99750008 5.92410005,9.05820007 6.31470005,8.07240006 C6.57510005,7.42140006 6.84480005,6.74250005 6.94710005,5.95200005 C7.12380005,4.51050003 6.40770005,3.10620002 5.12430004,2.36220002 L4.84530004,2.84580002 C5.55210004,3.25500003 6.06360005,3.92460003 6.28680005,4.68720004 C4.33380003,3.65490003 1.98090002,3.68280003 0.0465000004,4.80810004 L0.325500003,5.29170004 C2.21340002,4.18500003 4.54770003,4.23150003 6.40770005,5.39400004 C6.46350005,5.55210004 6.43560005,5.91480005 6.31470005,6.32400005 C5.06850004,5.39400004 3.43170003,5.07780004 1.92510001,5.49630004 L2.07390002,6.03570005 C3.48750003,5.64510004 5.03130004,5.98920005 6.15660005,6.91920005 C6.06360005,7.19820006 5.96130005,7.47720006 5.84970004,7.73760006 C4.67790004,6.59370005 2.85510002,6.36120005 1.41360001,7.18890006 L1.69260001,7.67250006 C2.40870002,7.25400006 3.24570002,7.12380005 4.01760003,7.30980006 C2.12970002,8.46300007 0.985800008,10.5090001 0.985800008,12.7410001 L1.54380001,12.7410001 C1.54380001,10.6020001 2.75280002,8.57460007 4.69650004,7.55160006 C4.96620004,7.69110006 5.22660004,7.88640006 5.44980004,8.10960006 C4.00830003,8.72340007 2.92020002,9.97890008 2.52030002,11.5041001 L3.05970002,11.6529001 C3.39450003,10.3695001 4.27800003,9.30930007 5.45910004,8.73270007 C5.33820004,9.09540007 5.23590004,9.43020007 5.18940004,9.83010008 C4.28730003,10.4625001 3.72930003,11.5320001 3.72930003,12.7410001 L4.28730003,12.7410001 C4.28730003,11.9040001 4.61280004,11.1414001 5.15220004,10.5927001 C5.16150004,10.8345001 5.18940004,11.0949001 5.23590004,11.3646001 C5.61720004,13.3548001 6.77040005,15.0381001 8.37930006,15.9681001 L8.65830007,15.4938001 C7.18890006,14.6382001 6.14730005,13.1037001 5.79390004,11.2809001 Z" id="Shape"></path>
            <path d="M8.34210006,5.32890004 C8.34210006,3.60840003 6.90990005,2.02740002 6.85410005,1.96230002 L6.44490005,2.34360002 C6.45420005,2.36220002 7.79340006,3.83160003 7.79340006,5.32890004 C7.79340006,6.26820005 7.49580006,7.00290005 7.18890006,7.78410006 C6.87270005,8.56530007 6.55650005,9.36510007 6.55650005,10.3695001 C6.55650005,12.4527001 7.99800006,13.9407001 8.06310006,13.9965001 L8.46300007,13.6059001 C8.45370007,13.5966001 7.11450005,12.2202001 7.11450005,10.3695001 C7.11450005,9.47670007 7.40280006,8.76060007 7.70970006,7.99800006 C8.00730006,7.19820006 8.34210006,6.37050005 8.34210006,5.32890004 Z" id="Shape"></path>
        </g>
    </g>
</svg>