<?xml version="1.0" encoding="UTF-8" standalone="no"?>
<svg width="491px" height="172px" viewBox="0 0 491 172" version="1.1" xmlns="http://www.w3.org/2000/svg" xmlns:xlink="http://www.w3.org/1999/xlink">
    <!-- Generator: Sketch 50.2 (55047) - http://www.bohemiancoding.com/sketch -->
    <title>frameworkless__horizontal-pw</title>
    <desc>Created with Sketch.</desc>
    <defs></defs>
    <g id="Page-1" stroke="none" stroke-width="1" fill="none" fill-rule="evenodd">
        <g id="frameworkless__horizontal-pw" fill-rule="nonzero">
            <g id="Group" transform="translate(178.000000, 45.000000)" fill="#245B62">
                <polygon id="Shape" points="0.3 30.1 0.3 2 18.6 2 18.6 7.2 7.2 7.2 7.2 13.2 15.8 13.2 15.8 18.4 7.2 18.4 7.2 30 0.3 30"></polygon>
                <path d="M29.4,7.7 L29.4,11.9 C31,9 33.1,7.5 35.8,7.5 L35.8,14.5 L34.1,14.5 C32.5,14.5 31.3,14.9 30.6,15.6 C29.9,16.3 29.4,17.7 29.4,19.5 L29.4,30.1 L22.6,30.1 L22.6,7.7 L29.4,7.7 Z" id="Shape"></path>
                <path d="M40.8,27.1 C38.8,25 37.8,22.2 37.8,18.9 C37.8,15.6 38.8,12.8 40.8,10.7 C42.8,8.6 45.2,7.5 48,7.5 C50.8,7.5 53,8.6 54.5,10.7 L54.5,7.8 L61.3,7.8 L61.3,30.1 L54.5,30.1 L54.5,26.9 C52.8,29.2 50.6,30.4 47.9,30.4 C45.2,30.4 42.8,29.3 40.8,27.1 Z M53.1,23 C54.1,22 54.6,20.7 54.6,18.9 C54.6,17.1 54.1,15.8 53.1,14.8 C52.1,13.9 51,13.4 49.7,13.4 C48.4,13.4 47.3,13.9 46.3,14.8 C45.3,15.8 44.8,17.1 44.8,18.9 C44.8,20.7 45.3,22 46.3,23 C47.3,23.9 48.4,24.4 49.7,24.4 C51,24.4 52.1,23.9 53.1,23 Z" id="Shape"></path>
                <path d="M72.6,7.7 L72.6,11 C74,8.7 76.3,7.5 79.4,7.5 C81.1,7.5 82.5,7.9 83.8,8.6 C85.1,9.3 86.1,10.4 86.8,11.8 C87.6,10.5 88.7,9.4 90,8.7 C91.3,7.9 92.8,7.5 94.4,7.5 C97.1,7.5 99.3,8.3 100.9,10 C102.5,11.7 103.3,14 103.3,17 L103.3,30 L96.5,30 L96.5,17.9 C96.5,16.5 96.1,15.3 95.4,14.6 C94.6,13.8 93.6,13.4 92.3,13.4 C91,13.4 89.9,13.8 89.2,14.6 C88.4,15.4 88.1,16.5 88.1,17.9 L88.1,30 L81.3,30 L81.3,17.9 C81.3,16.5 80.9,15.3 80.2,14.6 C79.4,13.8 78.4,13.4 77.1,13.4 C75.8,13.4 74.7,13.8 74,14.6 C73.2,15.4 72.9,16.5 72.9,17.9 L72.9,30 L66.1,30 L66.1,7.7 L72.6,7.7 Z" id="Shape"></path>
                <path d="M117.8,30.3 C114.5,30.3 111.9,29.3 109.8,27.2 C107.7,25.1 106.7,22.3 106.7,18.9 C106.7,15.4 107.7,12.7 109.8,10.6 C111.9,8.5 114.5,7.5 117.8,7.5 C121.1,7.5 123.8,8.5 126,10.5 C128.2,12.5 129.2,15.3 129.2,18.9 C129.2,19.7 129.1,20.4 129,21.1 L113.6,21.1 C113.7,22.1 114.2,22.9 114.9,23.5 C115.6,24.1 116.5,24.4 117.3,24.4 C118.2,24.4 118.8,24.3 119.2,24.1 C119.6,23.9 119.9,23.8 120.1,23.6 C120.3,23.4 120.6,23.1 120.9,22.7 L128.3,22.7 C127.7,24.9 126.4,26.7 124.5,28.1 C122.8,29.7 120.5,30.3 117.8,30.3 Z M120.8,14.3 C120,13.6 119.1,13.3 118,13.3 C116.9,13.3 116,13.6 115.2,14.3 C114.5,15 114,15.8 113.8,16.8 L122.2,16.8 C122,15.8 121.6,15 120.8,14.3 Z" id="Shape"></path>
                <polygon id="Shape" points="158.7 7.7 165.1 7.7 158.4 30 151 30 148 16.9 144.8 30.1 137.4 30.1 130.7 7.8 137.5 7.8 141 23.5 144.4 7.8 151.6 7.8 155 23.5"></polygon>
                <path d="M170.1,27.2 C167.8,25.1 166.7,22.3 166.7,18.9 C166.7,15.5 167.8,12.7 170.1,10.6 C172.3,8.5 175.1,7.5 178.4,7.5 C181.7,7.5 184.5,8.5 186.7,10.6 C188.9,12.7 190,15.4 190,18.9 C190,22.3 188.9,25.1 186.7,27.2 C184.5,29.3 181.7,30.4 178.4,30.4 C175.1,30.4 172.3,29.3 170.1,27.2 Z M181.7,23.1 C182.6,22.1 183.1,20.8 183.1,18.9 C183.1,17 182.6,15.7 181.7,14.8 C180.8,13.9 179.7,13.4 178.4,13.4 C177.1,13.4 176,13.9 175.1,14.8 C174.2,15.7 173.7,17.1 173.7,18.9 C173.7,20.7 174.2,22.1 175.1,23.1 C176,24.1 177.2,24.5 178.4,24.5 C179.6,24.5 180.8,24 181.7,23.1 Z" id="Shape"></path>
                <path d="M201.2,7.7 L201.2,11.9 C202.8,9 204.9,7.5 207.6,7.5 L207.6,14.5 L206,14.5 C204.4,14.5 203.2,14.9 202.5,15.6 C201.7,16.3 201.3,17.7 201.3,19.5 L201.3,30.1 L194.5,30.1 L194.5,7.7 L201.2,7.7 Z" id="Shape"></path>
                <polygon id="Shape" points="218.2 30.1 211.4 30.1 211.4 0.5 218.2 0.5 218.2 17.1 225.1 7.8 234.3 7.8 224.7 19.2 234.3 30.1 225.2 30.1 218.2 21.2 218.2 30.1"></polygon>
                <polygon id="Shape" points="236.7 30.1 236.7 0.5 243.5 0.5 243.5 30.1"></polygon>
                <path d="M257.4,30.3 C254.1,30.3 251.5,29.3 249.4,27.2 C247.3,25.1 246.3,22.3 246.3,18.9 C246.3,15.4 247.3,12.7 249.4,10.6 C251.5,8.5 254.1,7.5 257.4,7.5 C260.7,7.5 263.4,8.5 265.6,10.5 C267.8,12.5 268.8,15.3 268.8,18.9 C268.8,19.7 268.7,20.4 268.6,21.1 L253.2,21.1 C253.3,22.1 253.8,22.9 254.5,23.5 C255.2,24.1 256.1,24.4 256.9,24.4 C257.8,24.4 258.4,24.3 258.8,24.1 C259.2,23.9 259.5,23.8 259.7,23.6 C259.9,23.4 260.2,23.1 260.5,22.7 L267.9,22.7 C267.3,24.9 266,26.7 264.1,28.1 C262.3,29.7 260,30.3 257.4,30.3 Z M260.3,14.3 C259.5,13.6 258.6,13.3 257.5,13.3 C256.4,13.3 255.5,13.6 254.7,14.3 C254,15 253.5,15.8 253.3,16.8 L261.7,16.8 C261.6,15.8 261.1,15 260.3,14.3 Z" id="Shape"></path>
                <path d="M271.7,14.5 C271.7,12.5 272.5,10.9 274.2,9.5 C275.9,8.2 278.2,7.5 281,7.5 C283.8,7.5 286.2,8.2 287.9,9.5 C289.6,10.8 290.6,12.6 290.7,14.9 L283.7,14.9 C283.6,14.1 283.4,13.6 282.9,13.3 C282.4,13 281.8,12.9 280.9,12.9 C279.1,12.9 278.2,13.4 278.2,14.5 C278.2,15.5 279.3,16.2 281.5,16.5 C283.7,16.9 285.7,17.4 287.5,18.2 C288.4,18.6 289.2,19.2 289.8,20.1 C290.4,21 290.7,22 290.7,23.3 C290.7,25.4 289.8,27.1 288,28.4 C286.2,29.7 284,30.4 281.2,30.4 C278.5,30.4 276.2,29.8 274.4,28.5 C272.6,27.2 271.6,25.4 271.4,23 L278.4,23 C278.6,24.4 279.5,25 281.3,25 C282.1,25 282.8,24.8 283.3,24.4 C283.8,24 284.1,23.5 284.1,23 C284.1,22.4 283.7,21.9 282.8,21.6 C281.9,21.3 280.9,21 279.7,20.7 C278.5,20.4 277.2,20.2 276,19.8 C274.8,19.4 273.7,18.8 272.8,17.9 C272.1,17.1 271.7,15.9 271.7,14.5 Z" id="Shape"></path>
                <path d="M293.9,14.5 C293.9,12.5 294.7,10.9 296.4,9.5 C298.1,8.2 300.4,7.5 303.2,7.5 C306.1,7.5 308.4,8.2 310.1,9.5 C311.9,10.8 312.8,12.6 312.9,14.9 L305.9,14.9 C305.8,14.1 305.6,13.6 305.1,13.3 C304.6,13 304,12.9 303.1,12.9 C301.3,12.9 300.4,13.4 300.4,14.5 C300.4,15.5 301.5,16.2 303.7,16.5 C305.9,16.9 307.9,17.4 309.7,18.2 C310.6,18.6 311.4,19.2 312,20.1 C312.6,21 312.9,22 312.9,23.3 C312.9,25.4 312,27.1 310.2,28.4 C308.4,29.7 306.2,30.4 303.4,30.4 C300.6,30.4 298.4,29.8 296.6,28.5 C294.8,27.3 293.8,25.4 293.6,23 L300.6,23 C300.8,24.4 301.7,25 303.5,25 C304.3,25 305,24.8 305.5,24.4 C306,24 306.3,23.5 306.3,23 C306.3,22.4 305.9,21.9 305,21.6 C304.1,21.3 303.1,21 301.9,20.7 C300.7,20.5 299.4,20.2 298.2,19.8 C297,19.4 295.9,18.8 295,17.9 C294.3,17.1 293.9,15.9 293.9,14.5 Z" id="Shape"></path>
            </g>
            <g id="Group" transform="translate(179.000000, 88.000000)" fill="#245B62">
                <path d="M4.8,5.5 L4.8,9 C6.3,6.4 8.6,5.2 11.8,5.2 C13.5,5.2 15,5.6 16.4,6.4 C17.7,7.2 18.7,8.4 19.4,9.9 C20.2,8.4 21.2,7.3 22.6,6.5 C24,5.7 25.5,5.3 27.3,5.3 C29.8,5.3 31.9,6.1 33.5,7.8 C35.1,9.4 35.9,11.8 35.9,14.7 L35.9,27.7 L31.3,27.7 L31.3,15.4 C31.3,13.4 30.8,11.9 29.8,10.9 C28.8,9.9 27.5,9.3 25.8,9.3 C24.1,9.3 22.7,9.8 21.8,10.9 C20.9,12 20.3,13.5 20.3,15.4 L20.3,27.7 L15.8,27.7 L15.8,15.4 C15.8,13.4 15.3,11.9 14.3,10.9 C13.3,9.8 12,9.3 10.3,9.3 C8.6,9.3 7.2,9.8 6.2,10.9 C5.2,12 4.7,13.5 4.7,15.4 L4.7,27.7 L0.1,27.7 L0.1,5.7 L4.8,5.7 L4.8,5.5 Z" id="Shape"></path>
                <path d="M51.4,27.9 C48.2,27.9 45.5,26.9 43.5,24.8 C41.4,22.7 40.4,20 40.4,16.6 C40.4,13.2 41.5,10.5 43.6,8.4 C45.7,6.3 48.4,5.3 51.6,5.3 C54.8,5.3 57.5,6.3 59.6,8.4 C61.7,10.5 62.8,13.2 62.8,16.6 C62.8,20 61.7,22.7 59.5,24.8 C57.3,26.9 54.6,27.9 51.4,27.9 Z M56.1,22.1 C57.4,20.8 58.1,18.9 58.1,16.5 C58.1,14.1 57.5,12.3 56.2,11 C54.9,9.7 53.3,9 51.5,9 C49.7,9 48.1,9.7 46.9,11 C45.6,12.3 45,14.2 45,16.6 C45,19 45.6,20.8 46.8,22.2 C48,23.6 49.6,24.2 51.4,24.2 C53.2,24.1 54.8,23.4 56.1,22.1 Z" id="Shape"></path>
                <polygon id="Shape" points="64.7 5.5 69.6 5.5 75.8 23.5 82 5.5 86.9 5.5 78.5 27.5 73 27.5"></polygon>
                <path d="M99.7,27.9 C96.5,27.9 93.9,26.9 91.9,24.8 C89.9,22.7 88.9,20 88.9,16.5 C88.9,13.1 89.9,10.3 91.9,8.2 C93.9,6.1 96.5,5.1 99.8,5.1 C103,5.1 105.6,6.1 107.6,8.1 C109.6,10.1 110.6,12.7 110.6,15.9 C110.6,16.7 110.5,17.4 110.4,18.1 L93.5,18.1 C93.6,19.9 94.2,21.4 95.4,22.5 C96.5,23.6 98,24.1 99.7,24.1 C102.2,24.1 103.9,23.1 104.9,21 L109.8,21 C109.1,23 107.9,24.7 106.2,26 C104.4,27.3 102.2,27.9 99.7,27.9 Z M104,10.6 C102.8,9.5 101.4,9 99.7,9 C98,9 96.6,9.5 95.5,10.6 C94.4,11.7 93.7,13.1 93.6,14.9 L105.8,14.9 C105.8,13.1 105.2,11.7 104,10.6 Z" id="Shape"></path>
                <path d="M119.6,5.5 L119.6,9 C121.1,6.4 123.4,5.2 126.6,5.2 C128.3,5.2 129.8,5.6 131.2,6.4 C132.5,7.2 133.5,8.4 134.2,9.9 C135,8.4 136,7.3 137.4,6.5 C138.8,5.7 140.3,5.3 142.1,5.3 C144.6,5.3 146.7,6.1 148.3,7.8 C149.9,9.4 150.7,11.8 150.7,14.7 L150.7,27.7 L146.1,27.7 L146.1,15.4 C146.1,13.4 145.6,11.9 144.6,10.9 C143.6,9.8 142.3,9.3 140.6,9.3 C138.9,9.3 137.5,9.8 136.6,10.9 C135.6,12 135.1,13.5 135.1,15.4 L135.1,27.7 L130.6,27.7 L130.6,15.4 C130.6,13.4 130.1,11.9 129.1,10.9 C128.1,9.8 126.8,9.3 125.1,9.3 C123.4,9.3 122,9.8 121,10.9 C120,12 119.5,13.5 119.5,15.4 L119.5,27.7 L114.9,27.7 L114.9,5.7 L119.6,5.7 L119.6,5.5 Z" id="Shape"></path>
                <path d="M165.9,27.9 C162.7,27.9 160.1,26.9 158.1,24.8 C156.1,22.7 155.1,20 155.1,16.5 C155.1,13.1 156.1,10.3 158.1,8.2 C160.1,6.1 162.7,5.1 166,5.1 C169.3,5.1 171.8,6.1 173.8,8.1 C175.8,10.1 176.8,12.7 176.8,15.9 C176.8,16.7 176.7,17.4 176.6,18.1 L159.7,18.1 C159.8,19.9 160.4,21.4 161.6,22.5 C162.7,23.6 164.2,24.1 165.9,24.1 C168.4,24.1 170.1,23.1 171.1,21 L176,21 C175.3,23 174.1,24.7 172.4,26 C170.7,27.3 168.5,27.9 165.9,27.9 Z M170.3,10.6 C169.1,9.5 167.7,9 166,9 C164.3,9 162.9,9.5 161.8,10.6 C160.7,11.7 160,13.1 159.9,14.9 L172.1,14.9 C172,13.1 171.4,11.7 170.3,10.6 Z" id="Shape"></path>
                <path d="M185.9,5.5 L185.9,9 C187.4,6.4 189.7,5.2 192.9,5.2 C195.4,5.2 197.4,6 199,7.7 C200.6,9.4 201.4,11.7 201.4,14.6 L201.4,27.6 L196.9,27.6 L196.9,15.3 C196.9,13.3 196.4,11.8 195.4,10.8 C194.4,9.8 193.1,9.2 191.4,9.2 C189.7,9.2 188.3,9.7 187.3,10.8 C186.3,11.9 185.8,13.4 185.8,15.3 L185.8,27.6 L181.2,27.6 L181.2,5.6 L185.9,5.6 L185.9,5.5 Z" id="Shape"></path>
                <path d="M217.9,9.2 L212.5,9.2 L212.5,21.4 C212.5,22.2 212.7,22.8 213.1,23.2 C213.5,23.6 214.1,23.7 215.1,23.7 L217.9,23.7 L217.9,27.5 L214.3,27.5 C210.1,27.5 207.9,25.5 207.9,21.4 L207.9,9.2 L205.3,9.2 L205.3,5.5 L207.9,5.5 L207.9,0 L212.5,0 L212.5,5.5 L217.9,5.5 L217.9,9.2 Z" id="Shape"></path>
            </g>
            <g id="Group" fill="#63CB9D">
                <path d="M159.7,119.9 L156.7,114.7 C136.3,126.5 111.4,126 91.5,113.6 C91.5,110.8 92.1,105.3 92.6,103.7 C102,110.6 113.5,114.4 125.2,114.4 C130,114.4 134.8,113.8 139.5,112.5 L137.9,106.7 C122.8,110.8 106.4,107.3 94.4,97.5 C95.4,94.5 96.5,91.6 97.7,88.7 C105.3,95.9 115.1,99.7 125.1,99.7 C131.9,99.7 138.8,97.9 145.1,94.3 L142.1,89.1 C134.3,93.6 125.3,94.4 117,92.3 C137.3,79.6 149.7,57 149.7,33 L143.7,33 C143.7,57 130.7,78.6 109.7,89.6 C106.8,88.1 104.1,86.3 101.7,84 C117.2,77.4 128.9,64.1 133.2,47.6 L127.4,46.1 C123.8,59.8 114.6,71.1 102.1,77.3 C103.4,73.5 104.4,69.1 104.9,64.8 C114.3,57.3 120,46 120,33 L114,33 C114,42 110.7,50.3 104.9,56.5 C104.8,54.2 104.5,52 104,49.5 C99.9,28.1 87.5,10.2 70.2,0.2 L67.2,5.4 C83.1,14.6 94.3,31.1 98.1,50.7 C100.8,64.5 96.7,74.6 92.5,85.2 C89.7,92.2 86.8,99.5 85.7,108 C83.8,123.5 91.5,138.6 105.3,146.6 L108.3,141.4 C100.5,136.9 94.9,129.4 92.6,121.1 C102.7,126.5 113.9,129.2 125,129.2 C137,129.2 148.9,126.1 159.7,119.9 Z" id="Shape"></path>
                <path d="M62.4,121.2 C59.7,107.4 63.8,97.3 68,86.7 C70.8,79.7 73.7,72.4 74.8,63.9 C76.7,48.4 69,33.3 55.2,25.3 L52.2,30.5 C59.8,34.9 65.3,42.1 67.7,50.3 C46.7,39.2 21.4,39.5 0.6,51.6 L3.6,56.8 C24,44.9 49,45.4 69,57.9 C69.6,59.6 69.3,63.5 68,67.9 C54.6,57.9 37,54.5 20.8,59 L22.4,64.8 C37.6,60.6 54.2,64.3 66.3,74.3 C65.3,77.3 64.2,80.3 63,83.1 C50.4,70.8 30.8,68.3 15.3,77.2 L18.3,82.4 C26,77.9 35,76.5 43.3,78.5 C23.1,91 10.7,113 10.7,137 L16.7,137 C16.7,114 29.7,92.2 50.6,81.1 C53.5,82.6 56.3,84.7 58.7,87 C43.2,93.6 31.5,107.1 27.2,123.5 L33,125.1 C36.6,111.3 46.1,99.9 58.8,93.7 C57.5,97.6 56.4,101.3 55.9,105.6 C46.2,112.4 40.2,123.9 40.2,136.9 L46.2,136.9 C46.2,127.9 49.7,119.7 55.5,113.8 C55.6,116.4 55.9,119.2 56.4,122 C60.5,143.4 72.9,161.4 90.2,171.5 L93.2,166.3 C77.5,157.3 66.2,140.8 62.4,121.2 Z" id="Shape"></path>
                <path d="M89.8,57.2 C89.8,38.7 74.4,21.7 73.8,21 L69.4,25.1 C69.5,25.3 83.9,41.1 83.9,57.2 C83.9,67.3 80.7,75.2 77.4,83.6 C74,92 70.6,100.6 70.6,111.4 C70.6,133.8 86.1,149.8 86.8,150.4 L91.1,146.2 C91,146.1 76.6,131.3 76.6,111.4 C76.6,101.8 79.7,94.1 83,85.9 C86.2,77.3 89.8,68.4 89.8,57.2 Z" id="Shape"></path>
            </g>
        </g>
    </g>
</svg>