<?xml version="1.0" encoding="UTF-8" standalone="no"?>
<svg width="300px" height="105px" viewBox="0 0 300 105" version="1.1" xmlns="http://www.w3.org/2000/svg" xmlns:xlink="http://www.w3.org/1999/xlink">
    <!-- Generator: Sketch 50.2 (55047) - http://www.bohemiancoding.com/sketch -->
    <title>logo-framework-big</title>
    <desc>Created with Sketch.</desc>
    <defs></defs>
    <g id="Page-1" stroke="none" stroke-width="1" fill="none" fill-rule="evenodd">
        <g id="logo-framework-big" fill-rule="nonzero">
            <g id="Group" transform="translate(108.757637, 27.494908)" fill="#245B62">
                <polygon id="Shape" points="0.183299389 18.3910387 0.183299389 1.22199593 11.3645621 1.22199593 11.3645621 4.39918534 4.39918534 4.39918534 4.39918534 8.06517312 9.65376782 8.06517312 9.65376782 11.2423625 4.39918534 11.2423625 4.39918534 18.3299389 0.183299389 18.3299389"></polygon>
                <path d="M17.9633401,4.70468432 L17.9633401,7.27087576 C18.9409369,5.49898167 20.2240326,4.58248473 21.8737271,4.58248473 L21.8737271,8.85947047 L20.8350305,8.85947047 C19.8574338,8.85947047 19.1242363,9.10386965 18.6965377,9.53156823 C18.2688391,9.9592668 17.9633401,10.814664 17.9633401,11.9144603 L17.9633401,18.3910387 L13.808554,18.3910387 L13.808554,4.70468432 L17.9633401,4.70468432 Z" id="Shape"></path>
                <path d="M24.9287169,16.5580448 C23.706721,15.2749491 23.095723,13.5641548 23.095723,11.5478615 C23.095723,9.53156823 23.706721,7.82077393 24.9287169,6.53767821 C26.1507128,5.25458248 27.6171079,4.58248473 29.3279022,4.58248473 C31.0386965,4.58248473 32.3828921,5.25458248 33.299389,6.53767821 L33.299389,4.76578411 L37.4541752,4.76578411 L37.4541752,18.3910387 L33.299389,18.3910387 L33.299389,16.4358452 C32.2606925,17.8411405 30.9164969,18.5743381 29.2668024,18.5743381 C27.6171079,18.5743381 26.1507128,17.9022403 24.9287169,16.5580448 Z M32.4439919,14.0529532 C33.0549898,13.4419552 33.3604888,12.6476578 33.3604888,11.5478615 C33.3604888,10.4480652 33.0549898,9.65376782 32.4439919,9.04276986 C31.8329939,8.49287169 31.1608961,8.18737271 30.3665988,8.18737271 C29.5723014,8.18737271 28.9002037,8.49287169 28.2892057,9.04276986 C27.6782077,9.65376782 27.3727088,10.4480652 27.3727088,11.5478615 C27.3727088,12.6476578 27.6782077,13.4419552 28.2892057,14.0529532 C28.9002037,14.6028513 29.5723014,14.9083503 30.3665988,14.9083503 C31.1608961,14.9083503 31.8329939,14.6028513 32.4439919,14.0529532 Z" id="Shape"></path>
                <path d="M44.3584521,4.70468432 L44.3584521,6.7209776 C45.2138493,5.31568228 46.6191446,4.58248473 48.5132383,4.58248473 C49.5519348,4.58248473 50.407332,4.82688391 51.2016293,5.25458248 C51.9959267,5.68228106 52.6069246,6.35437882 53.0346232,7.20977597 C53.5234216,6.41547862 54.1955193,5.74338086 54.9898167,5.31568228 C55.7841141,4.82688391 56.700611,4.58248473 57.6782077,4.58248473 C59.3279022,4.58248473 60.6720978,5.0712831 61.6496945,6.10997963 C62.6272912,7.14867617 63.1160896,8.55397149 63.1160896,10.3869654 L63.1160896,18.3299389 L58.9613035,18.3299389 L58.9613035,10.9368635 C58.9613035,10.0814664 58.7169043,9.34826884 58.2892057,8.92057026 C57.8004073,8.43177189 57.1894094,8.18737271 56.395112,8.18737271 C55.6008147,8.18737271 54.9287169,8.43177189 54.5010183,8.92057026 C54.01222,9.40936864 53.8289206,10.0814664 53.8289206,10.9368635 L53.8289206,18.3299389 L49.6741344,18.3299389 L49.6741344,10.9368635 C49.6741344,10.0814664 49.4297352,9.34826884 49.0020367,8.92057026 C48.5132383,8.43177189 47.9022403,8.18737271 47.107943,8.18737271 C46.3136456,8.18737271 45.6415479,8.43177189 45.2138493,8.92057026 C44.7250509,9.40936864 44.5417515,10.0814664 44.5417515,10.9368635 L44.5417515,18.3299389 L40.3869654,18.3299389 L40.3869654,4.70468432 L44.3584521,4.70468432 Z" id="Shape"></path>
                <path d="M71.9755601,18.5132383 C69.9592668,18.5132383 68.3706721,17.9022403 67.0875764,16.6191446 C65.8044807,15.3360489 65.1934827,13.6252546 65.1934827,11.5478615 C65.1934827,9.40936864 65.8044807,7.75967413 67.0875764,6.47657841 C68.3706721,5.19348269 69.9592668,4.58248473 71.9755601,4.58248473 C73.9918534,4.58248473 75.6415479,5.19348269 76.9857434,6.41547862 C78.3299389,7.63747454 78.9409369,9.34826884 78.9409369,11.5478615 C78.9409369,12.0366599 78.8798371,12.4643585 78.8187373,12.892057 L69.4093686,12.892057 C69.4704684,13.503055 69.7759674,13.9918534 70.203666,14.3584521 C70.6313646,14.7250509 71.1812627,14.9083503 71.6700611,14.9083503 C72.2199593,14.9083503 72.586558,14.8472505 72.8309572,14.7250509 C73.0753564,14.6028513 73.2586558,14.5417515 73.3808554,14.4195519 C73.503055,14.2973523 73.6863544,14.114053 73.8696538,13.8696538 L78.3910387,13.8696538 C78.0244399,15.2138493 77.2301426,16.3136456 76.0692464,17.1690428 C75.0305499,18.1466395 73.6252546,18.5132383 71.9755601,18.5132383 Z M73.808554,8.73727088 C73.3197556,8.3095723 72.7698574,8.12627291 72.0977597,8.12627291 C71.4256619,8.12627291 70.8757637,8.3095723 70.3869654,8.73727088 C69.9592668,9.16496945 69.6537678,9.65376782 69.5315682,10.2647658 L74.6639511,10.2647658 C74.5417515,9.65376782 74.2973523,9.16496945 73.808554,8.73727088 Z" id="Shape"></path>
                <polygon id="Shape" points="96.9653768 4.70468432 100.875764 4.70468432 96.7820774 18.3299389 92.2606925 18.3299389 90.4276986 10.3258656 88.4725051 18.3910387 83.9511202 18.3910387 79.8574338 4.76578411 84.01222 4.76578411 86.1507128 14.3584521 88.2281059 4.76578411 92.6272912 4.76578411 94.7046843 14.3584521"></polygon>
                <path d="M103.930754,16.6191446 C102.525458,15.3360489 101.85336,13.6252546 101.85336,11.5478615 C101.85336,9.47046843 102.525458,7.75967413 103.930754,6.47657841 C105.274949,5.19348269 106.985743,4.58248473 109.002037,4.58248473 C111.01833,4.58248473 112.729124,5.19348269 114.07332,6.47657841 C115.417515,7.75967413 116.089613,9.40936864 116.089613,11.5478615 C116.089613,13.6252546 115.417515,15.3360489 114.07332,16.6191446 C112.729124,17.9022403 111.01833,18.5743381 109.002037,18.5743381 C106.985743,18.5743381 105.274949,17.9022403 103.930754,16.6191446 Z M111.01833,14.114053 C111.568228,13.503055 111.873727,12.7087576 111.873727,11.5478615 C111.873727,10.3869654 111.568228,9.59266802 111.01833,9.04276986 C110.468432,8.49287169 109.796334,8.18737271 109.002037,8.18737271 C108.207739,8.18737271 107.535642,8.49287169 106.985743,9.04276986 C106.435845,9.59266802 106.130346,10.4480652 106.130346,11.5478615 C106.130346,12.6476578 106.435845,13.503055 106.985743,14.114053 C107.535642,14.7250509 108.268839,14.9694501 109.002037,14.9694501 C109.735234,14.9694501 110.468432,14.6639511 111.01833,14.114053 Z" id="Shape"></path>
                <path d="M122.93279,4.70468432 L122.93279,7.27087576 C123.910387,5.49898167 125.193483,4.58248473 126.843177,4.58248473 L126.843177,8.85947047 L125.86558,8.85947047 C124.887984,8.85947047 124.154786,9.10386965 123.727088,9.53156823 C123.238289,9.9592668 122.99389,10.814664 122.99389,11.9144603 L122.99389,18.3910387 L118.839104,18.3910387 L118.839104,4.70468432 L122.93279,4.70468432 Z" id="Shape"></path>
                <polygon id="Shape" points="133.319756 18.3910387 129.164969 18.3910387 129.164969 0.305498982 133.319756 0.305498982 133.319756 10.4480652 137.535642 4.76578411 143.156823 4.76578411 137.291242 11.7311609 143.156823 18.3910387 137.596741 18.3910387 133.319756 12.9531568 133.319756 18.3910387"></polygon>
                <polygon id="Shape" points="144.623218 18.3910387 144.623218 0.305498982 148.778004 0.305498982 148.778004 18.3910387"></polygon>
                <path d="M157.270876,18.5132383 C155.254582,18.5132383 153.665988,17.9022403 152.382892,16.6191446 C151.099796,15.3360489 150.488798,13.6252546 150.488798,11.5478615 C150.488798,9.40936864 151.099796,7.75967413 152.382892,6.47657841 C153.665988,5.19348269 155.254582,4.58248473 157.270876,4.58248473 C159.287169,4.58248473 160.936864,5.19348269 162.281059,6.41547862 C163.625255,7.63747454 164.236253,9.34826884 164.236253,11.5478615 C164.236253,12.0366599 164.175153,12.4643585 164.114053,12.892057 L154.704684,12.892057 C154.765784,13.503055 155.071283,13.9918534 155.498982,14.3584521 C155.92668,14.7250509 156.476578,14.9083503 156.965377,14.9083503 C157.515275,14.9083503 157.881874,14.8472505 158.126273,14.7250509 C158.370672,14.6028513 158.553971,14.5417515 158.676171,14.4195519 C158.798371,14.2973523 158.98167,14.114053 159.164969,13.8696538 L163.686354,13.8696538 C163.319756,15.2138493 162.525458,16.3136456 161.364562,17.1690428 C160.264766,18.1466395 158.85947,18.5132383 157.270876,18.5132383 Z M159.04277,8.73727088 C158.553971,8.3095723 158.004073,8.12627291 157.331976,8.12627291 C156.659878,8.12627291 156.10998,8.3095723 155.621181,8.73727088 C155.193483,9.16496945 154.887984,9.65376782 154.765784,10.2647658 L159.898167,10.2647658 C159.837067,9.65376782 159.531568,9.16496945 159.04277,8.73727088 Z" id="Shape"></path>
                <path d="M166.008147,8.85947047 C166.008147,7.63747454 166.496945,6.6598778 167.535642,5.80448065 C168.574338,5.0101833 169.979633,4.58248473 171.690428,4.58248473 C173.401222,4.58248473 174.867617,5.0101833 175.906314,5.80448065 C176.94501,6.598778 177.556008,7.69857434 177.617108,9.10386965 L173.340122,9.10386965 C173.279022,8.61507128 173.156823,8.3095723 172.851324,8.12627291 C172.545825,7.94297352 172.179226,7.88187373 171.629328,7.88187373 C170.529532,7.88187373 169.979633,8.18737271 169.979633,8.85947047 C169.979633,9.47046843 170.651731,9.89816701 171.995927,10.0814664 C173.340122,10.3258656 174.562118,10.6313646 175.661914,11.1201629 C176.211813,11.3645621 176.700611,11.7311609 177.06721,12.2810591 C177.433809,12.8309572 177.617108,13.4419552 177.617108,14.2362525 C177.617108,15.5193483 177.06721,16.5580448 175.967413,17.3523422 C174.867617,18.1466395 173.523422,18.5743381 171.812627,18.5743381 C170.162933,18.5743381 168.757637,18.2077393 167.657841,17.413442 C166.558045,16.6191446 165.947047,15.5193483 165.824847,14.0529532 L170.101833,14.0529532 C170.224033,14.9083503 170.773931,15.2749491 171.873727,15.2749491 C172.362525,15.2749491 172.790224,15.1527495 173.095723,14.9083503 C173.401222,14.6639511 173.584521,14.3584521 173.584521,14.0529532 C173.584521,13.6863544 173.340122,13.3808554 172.790224,13.197556 C172.240326,13.0142566 171.629328,12.8309572 170.89613,12.6476578 C170.162933,12.4643585 169.368635,12.3421589 168.635438,12.0977597 C167.90224,11.8533605 167.230143,11.4867617 166.680244,10.9368635 C166.252546,10.4480652 166.008147,9.71486762 166.008147,8.85947047 Z" id="Shape"></path>
                <path d="M179.572301,8.85947047 C179.572301,7.63747454 180.0611,6.6598778 181.099796,5.80448065 C182.138493,5.0101833 183.543788,4.58248473 185.254582,4.58248473 C187.026477,4.58248473 188.431772,5.0101833 189.470468,5.80448065 C190.570265,6.598778 191.120163,7.69857434 191.181263,9.10386965 L186.904277,9.10386965 C186.843177,8.61507128 186.720978,8.3095723 186.415479,8.12627291 C186.10998,7.94297352 185.743381,7.88187373 185.193483,7.88187373 C184.093686,7.88187373 183.543788,8.18737271 183.543788,8.85947047 C183.543788,9.47046843 184.215886,9.89816701 185.560081,10.0814664 C186.904277,10.3258656 188.126273,10.6313646 189.226069,11.1201629 C189.775967,11.3645621 190.264766,11.7311609 190.631365,12.2810591 C190.997963,12.8309572 191.181263,13.4419552 191.181263,14.2362525 C191.181263,15.5193483 190.631365,16.5580448 189.531568,17.3523422 C188.431772,18.1466395 187.087576,18.5743381 185.376782,18.5743381 C183.665988,18.5743381 182.321792,18.2077393 181.221996,17.413442 C180.1222,16.6802444 179.511202,15.5193483 179.389002,14.0529532 L183.665988,14.0529532 C183.788187,14.9083503 184.338086,15.2749491 185.437882,15.2749491 C185.92668,15.2749491 186.354379,15.1527495 186.659878,14.9083503 C186.965377,14.6639511 187.148676,14.3584521 187.148676,14.0529532 C187.148676,13.6863544 186.904277,13.3808554 186.354379,13.197556 C185.804481,13.0142566 185.193483,12.8309572 184.460285,12.6476578 C183.727088,12.5254582 182.93279,12.3421589 182.199593,12.0977597 C181.466395,11.8533605 180.794297,11.4867617 180.244399,10.9368635 C179.816701,10.4480652 179.572301,9.71486762 179.572301,8.85947047 Z" id="Shape"></path>
            </g>
            <g id="Group" transform="translate(109.368635, 53.767821)" fill="#245B62">
                <path d="M2.93279022,3.3604888 L2.93279022,5.49898167 C3.84928717,3.91038697 5.25458248,3.17718941 7.20977597,3.17718941 C8.24847251,3.17718941 9.16496945,3.42158859 10.0203666,3.91038697 C10.814664,4.39918534 11.4256619,5.13238289 11.8533605,6.04887984 C12.3421589,5.13238289 12.9531568,4.46028513 13.808554,3.97148676 C14.6639511,3.48268839 15.5804481,3.23828921 16.6802444,3.23828921 C18.2077393,3.23828921 19.490835,3.72708758 20.4684318,4.76578411 C21.4460285,5.74338086 21.9348269,7.20977597 21.9348269,8.98167006 L21.9348269,16.9246436 L19.1242363,16.9246436 L19.1242363,9.40936864 C19.1242363,8.18737271 18.8187373,7.27087576 18.2077393,6.6598778 C17.5967413,6.04887984 16.802444,5.68228106 15.7637475,5.68228106 C14.7250509,5.68228106 13.8696538,5.98778004 13.3197556,6.6598778 C12.7698574,7.33197556 12.4032587,8.24847251 12.4032587,9.40936864 L12.4032587,16.9246436 L9.65376782,16.9246436 L9.65376782,9.40936864 C9.65376782,8.18737271 9.34826884,7.27087576 8.73727088,6.6598778 C8.12627291,5.98778004 7.33197556,5.68228106 6.29327902,5.68228106 C5.25458248,5.68228106 4.39918534,5.98778004 3.78818737,6.6598778 C3.17718941,7.33197556 2.87169043,8.24847251 2.87169043,9.40936864 L2.87169043,16.9246436 L0.0610997963,16.9246436 L0.0610997963,3.48268839 L2.93279022,3.48268839 L2.93279022,3.3604888 Z" id="Shape"></path>
                <path d="M31.4052953,17.0468432 C29.4501018,17.0468432 27.8004073,16.4358452 26.5784114,15.1527495 C25.2953157,13.8696538 24.6843177,12.2199593 24.6843177,10.1425662 C24.6843177,8.06517312 25.3564155,6.41547862 26.6395112,5.13238289 C27.9226069,3.84928717 29.5723014,3.23828921 31.5274949,3.23828921 C33.4826884,3.23828921 35.1323829,3.84928717 36.4154786,5.13238289 C37.6985743,6.41547862 38.3706721,8.06517312 38.3706721,10.1425662 C38.3706721,12.2199593 37.6985743,13.8696538 36.3543788,15.1527495 C35.0101833,16.4358452 33.3604888,17.0468432 31.4052953,17.0468432 Z M34.2769857,13.503055 C35.0712831,12.7087576 35.4989817,11.5478615 35.4989817,10.0814664 C35.4989817,8.61507128 35.1323829,7.51527495 34.3380855,6.7209776 C33.5437882,5.92668024 32.5661914,5.49898167 31.4663951,5.49898167 C30.3665988,5.49898167 29.389002,5.92668024 28.6558045,6.7209776 C27.8615071,7.51527495 27.4949084,8.67617108 27.4949084,10.1425662 C27.4949084,11.6089613 27.8615071,12.7087576 28.5947047,13.5641548 C29.3279022,14.4195519 30.305499,14.7861507 31.4052953,14.7861507 C32.5050916,14.7250509 33.4826884,14.2973523 34.2769857,13.503055 Z" id="Shape"></path>
                <polygon id="Shape" points="39.5315682 3.3604888 42.5254582 3.3604888 46.3136456 14.3584521 50.101833 3.3604888 53.095723 3.3604888 47.9633401 16.802444 44.6028513 16.802444"></polygon>
                <path d="M60.9164969,17.0468432 C58.9613035,17.0468432 57.3727088,16.4358452 56.1507128,15.1527495 C54.9287169,13.8696538 54.3177189,12.2199593 54.3177189,10.0814664 C54.3177189,8.00407332 54.9287169,6.29327902 56.1507128,5.0101833 C57.3727088,3.72708758 58.9613035,3.11608961 60.9775967,3.11608961 C62.9327902,3.11608961 64.5213849,3.72708758 65.7433809,4.9490835 C66.9653768,6.17107943 67.5763747,7.75967413 67.5763747,9.71486762 C67.5763747,10.203666 67.5152749,10.6313646 67.4541752,11.0590631 L57.1283096,11.0590631 C57.1894094,12.1588595 57.5560081,13.0753564 58.2892057,13.7474542 C58.9613035,14.4195519 59.8778004,14.7250509 60.9164969,14.7250509 C62.4439919,14.7250509 63.4826884,14.114053 64.0936864,12.8309572 L67.0875764,12.8309572 C66.6598778,14.0529532 65.9266802,15.0916497 64.8879837,15.885947 C63.7881874,16.6802444 62.4439919,17.0468432 60.9164969,17.0468432 Z M63.5437882,6.47657841 C62.8105906,5.80448065 61.9551935,5.49898167 60.9164969,5.49898167 C59.8778004,5.49898167 59.0224033,5.80448065 58.3503055,6.47657841 C57.6782077,7.14867617 57.2505092,8.00407332 57.1894094,9.10386965 L64.6435845,9.10386965 C64.6435845,8.00407332 64.2769857,7.14867617 63.5437882,6.47657841 Z" id="Shape"></path>
                <path d="M73.0753564,3.3604888 L73.0753564,5.49898167 C73.9918534,3.91038697 75.3971487,3.17718941 77.3523422,3.17718941 C78.3910387,3.17718941 79.3075356,3.42158859 80.1629328,3.91038697 C80.9572301,4.39918534 81.5682281,5.13238289 81.9959267,6.04887984 C82.4847251,5.13238289 83.095723,4.46028513 83.9511202,3.97148676 C84.8065173,3.48268839 85.7230143,3.23828921 86.8228106,3.23828921 C88.3503055,3.23828921 89.6334012,3.72708758 90.610998,4.76578411 C91.5885947,5.74338086 92.0773931,7.20977597 92.0773931,8.98167006 L92.0773931,16.9246436 L89.2668024,16.9246436 L89.2668024,9.40936864 C89.2668024,8.18737271 88.9613035,7.27087576 88.3503055,6.6598778 C87.7393075,5.98778004 86.9450102,5.68228106 85.9063136,5.68228106 C84.8676171,5.68228106 84.01222,5.98778004 83.4623218,6.6598778 C82.8513238,7.33197556 82.5458248,8.24847251 82.5458248,9.40936864 L82.5458248,16.9246436 L79.796334,16.9246436 L79.796334,9.40936864 C79.796334,8.18737271 79.490835,7.27087576 78.8798371,6.6598778 C78.2688391,5.98778004 77.4745418,5.68228106 76.4358452,5.68228106 C75.3971487,5.68228106 74.5417515,5.98778004 73.9307536,6.6598778 C73.3197556,7.33197556 73.0142566,8.24847251 73.0142566,9.40936864 L73.0142566,16.9246436 L70.203666,16.9246436 L70.203666,3.48268839 L73.0753564,3.48268839 L73.0753564,3.3604888 Z" id="Shape"></path>
                <path d="M101.364562,17.0468432 C99.4093686,17.0468432 97.8207739,16.4358452 96.598778,15.1527495 C95.3767821,13.8696538 94.7657841,12.2199593 94.7657841,10.0814664 C94.7657841,8.00407332 95.3767821,6.29327902 96.598778,5.0101833 C97.8207739,3.72708758 99.4093686,3.11608961 101.425662,3.11608961 C103.441955,3.11608961 104.96945,3.72708758 106.191446,4.9490835 C107.413442,6.17107943 108.02444,7.75967413 108.02444,9.71486762 C108.02444,10.203666 107.96334,10.6313646 107.90224,11.0590631 L97.5763747,11.0590631 C97.6374745,12.1588595 98.0040733,13.0753564 98.7372709,13.7474542 C99.4093686,14.4195519 100.325866,14.7250509 101.364562,14.7250509 C102.892057,14.7250509 103.930754,14.114053 104.541752,12.8309572 L107.535642,12.8309572 C107.107943,14.0529532 106.374745,15.0916497 105.336049,15.885947 C104.297352,16.6802444 102.953157,17.0468432 101.364562,17.0468432 Z M104.052953,6.47657841 C103.319756,5.80448065 102.464358,5.49898167 101.425662,5.49898167 C100.386965,5.49898167 99.5315682,5.80448065 98.8594705,6.47657841 C98.1873727,7.14867617 97.7596741,8.00407332 97.6985743,9.10386965 L105.152749,9.10386965 C105.09165,8.00407332 104.725051,7.14867617 104.052953,6.47657841 Z" id="Shape"></path>
                <path d="M113.584521,3.3604888 L113.584521,5.49898167 C114.501018,3.91038697 115.906314,3.17718941 117.861507,3.17718941 C119.389002,3.17718941 120.610998,3.66598778 121.588595,4.70468432 C122.566191,5.74338086 123.05499,7.14867617 123.05499,8.92057026 L123.05499,16.8635438 L120.305499,16.8635438 L120.305499,9.34826884 C120.305499,8.12627291 120,7.20977597 119.389002,6.598778 C118.778004,5.98778004 117.983707,5.62118126 116.94501,5.62118126 C115.906314,5.62118126 115.050916,5.92668024 114.439919,6.598778 C113.828921,7.27087576 113.523422,8.18737271 113.523422,9.34826884 L113.523422,16.8635438 L110.712831,16.8635438 L110.712831,3.42158859 L113.584521,3.42158859 L113.584521,3.3604888 Z" id="Shape"></path>
                <path d="M133.136456,5.62118126 L129.837067,5.62118126 L129.837067,13.0753564 C129.837067,13.5641548 129.959267,13.9307536 130.203666,14.1751527 C130.448065,14.4195519 130.814664,14.4806517 131.425662,14.4806517 L133.136456,14.4806517 L133.136456,16.802444 L130.936864,16.802444 C128.370672,16.802444 127.026477,15.5804481 127.026477,13.0753564 L127.026477,5.62118126 L125.437882,5.62118126 L125.437882,3.3604888 L127.026477,3.3604888 L127.026477,0 L129.837067,0 L129.837067,3.3604888 L133.136456,3.3604888 L133.136456,5.62118126 Z" id="Shape"></path>
            </g>
            <g id="Group" fill="#63CB9D">
                <path d="M97.5763747,73.2586558 L95.7433809,70.0814664 C83.2790224,77.2912424 68.0651731,76.9857434 55.9063136,69.4093686 C55.9063136,67.6985743 56.2729124,64.3380855 56.5784114,63.3604888 C62.3217923,67.5763747 69.3482688,69.898167 76.496945,69.898167 C79.4297352,69.898167 82.3625255,69.5315682 85.2342159,68.7372709 L84.2566191,65.1934827 C75.0305499,67.6985743 65.0101833,65.5600815 57.6782077,59.5723014 C58.2892057,57.7393075 58.9613035,55.9674134 59.694501,54.1955193 C64.3380855,58.5947047 70.3258656,60.9164969 76.4358452,60.9164969 C80.5906314,60.9164969 84.8065173,59.8167006 88.6558045,57.6171079 L86.8228106,54.4399185 C82.0570265,57.1894094 76.5580448,57.6782077 71.4867617,56.395112 C83.8900204,48.6354379 91.4663951,34.8268839 91.4663951,20.1629328 L87.8004073,20.1629328 C87.8004073,34.8268839 79.8574338,48.0244399 67.0264766,54.7454175 C65.2545825,53.8289206 63.604888,52.7291242 62.1384929,51.3238289 C71.6089613,47.2912424 78.7576375,39.1649695 81.3849287,29.0835031 L77.8411405,28.1670061 C75.6415479,36.5376782 70.0203666,43.4419552 62.3828921,47.2301426 C63.1771894,44.9083503 63.7881874,42.2199593 64.0936864,39.592668 C69.8370672,35.0101833 73.3197556,28.1059063 73.3197556,20.1629328 L69.6537678,20.1629328 C69.6537678,25.6619145 67.6374745,30.7331976 64.0936864,34.5213849 C64.0325866,33.1160896 63.8492872,31.7718941 63.5437882,30.2443992 C61.0386965,17.1690428 53.4623218,6.23217923 42.892057,0.122199593 L41.0590631,3.299389 C50.7739308,8.92057026 57.6171079,19.0020367 59.9389002,30.9775967 C61.5885947,39.4093686 59.0835031,45.5804481 56.5173116,52.0570265 C54.8065173,56.3340122 53.0346232,60.7942974 52.3625255,65.98778 C51.2016293,75.4582485 55.9063136,84.6843177 64.3380855,89.5723014 L66.1710794,86.395112 C61.4052953,83.6456212 57.9837067,79.0631365 56.5784114,73.9918534 C62.7494908,77.2912424 69.592668,78.9409369 76.3747454,78.9409369 C83.706721,78.9409369 90.9775967,77.0468432 97.5763747,73.2586558 Z" id="Shape"></path>
                <path d="M38.1262729,74.0529532 C36.4765784,65.6211813 38.9816701,59.4501018 41.5478615,52.9735234 C43.2586558,48.6965377 45.0305499,44.2362525 45.7026477,39.0427699 C46.8635438,29.5723014 42.1588595,20.3462322 33.7270876,15.4582485 L31.8940937,18.6354379 C36.5376782,21.3238289 39.898167,25.7230143 41.3645621,30.7331976 C28.5336049,23.9511202 13.0753564,24.1344196 0.366598778,31.5274949 L2.19959267,34.7046843 C14.6639511,27.4338086 29.9389002,27.7393075 42.1588595,35.3767821 C42.5254582,36.4154786 42.3421589,38.7983707 41.5478615,41.4867617 C33.3604888,35.3767821 22.6069246,33.299389 12.7087576,36.0488798 L13.6863544,39.592668 C22.9735234,37.0264766 33.1160896,39.287169 40.509165,45.3971487 C39.898167,47.2301426 39.2260692,49.0631365 38.4928717,50.7739308 C30.7942974,43.2586558 18.8187373,41.7311609 9.34826884,47.1690428 L11.1812627,50.3462322 C15.885947,47.5967413 21.3849287,46.7413442 26.4562118,47.9633401 C14.114053,55.6008147 6.53767821,69.0427699 6.53767821,83.706721 L10.203666,83.706721 C10.203666,69.6537678 18.1466395,56.3340122 30.9164969,49.5519348 C32.688391,50.4684318 34.3991853,51.7515275 35.8655804,53.1568228 C26.395112,57.1894094 19.2464358,65.4378819 16.6191446,75.4582485 L20.1629328,76.4358452 C22.3625255,68.0040733 28.1670061,61.0386965 35.9266802,57.2505092 C35.1323829,59.6334012 34.4602851,61.8940937 34.1547862,64.5213849 C28.2281059,68.6761711 24.5621181,75.7026477 24.5621181,83.6456212 L28.2281059,83.6456212 C28.2281059,78.1466395 30.3665988,73.1364562 33.910387,69.5315682 C33.9714868,71.1201629 34.1547862,72.8309572 34.4602851,74.5417515 C36.9653768,87.6171079 44.5417515,98.6150713 55.1120163,104.786151 L56.9450102,101.608961 C47.3523422,96.1099796 40.4480652,86.0285132 38.1262729,74.0529532 Z" id="Shape"></path>
                <path d="M54.8676171,34.9490835 C54.8676171,23.6456212 45.4582485,13.2586558 45.0916497,12.8309572 L42.4032587,15.3360489 C42.4643585,15.4582485 51.2627291,25.1120163 51.2627291,34.9490835 C51.2627291,41.1201629 49.3075356,45.9470468 47.2912424,51.0794297 C45.2138493,56.2118126 43.1364562,61.4663951 43.1364562,68.0651731 C43.1364562,81.7515275 52.6069246,91.5274949 53.0346232,91.8940937 L55.6619145,89.3279022 C55.6008147,89.2668024 46.802444,80.2240326 46.802444,68.0651731 C46.802444,62.1995927 48.6965377,57.4949084 50.712831,52.4847251 C52.6680244,47.2301426 54.8676171,41.7922607 54.8676171,34.9490835 Z" id="Shape"></path>
            </g>
        </g>
    </g>
</svg>